:SAMPLES-PER-SECOND 30
:FULLY-SPECIFIED
:DEGREES
208
root  34.92217777 36.48399593 -14.74682515 11.27668858 9.217608452 4.569758892
lowerback  -8.007129669 3.672970295 4.124969959
upperback  -4.076330185 4.308839798 -4.518060207
thorax  0.9057909846 1.928390026 -6.645909786
lowerneck  -17.55780029 4.847990036 7.407430172
upperneck  16.18829918 3.820820332 3.094909906
head  8.023516655 2.50927949 0.2832616866
lclavicle  0 -4.497500157e-015 -2.743230041e-014
lhumerus  -42.07740021 23.61359978 70.4536972
lradius  -0.1233151257 -6.507048965e-006 25.74920082
lwrist  4.824992743e-007 -3.790274832e-007 -31.26239967
lhand  -4.445301581e-031 -37.40610123 -10.61030006
lfingers  90 7.125020027 -90
lthumb  95.03889657 -25.42898564 101.6039999
rclavicle  0 -4.497500157e-015 -2.743230041e-014
rhumerus  68.95510101 11.44320011 -60.69589996
rradius  -5.16745672e-007 2.214343908e-008 37.25220108
rwrist  -3.062178075e-005 0.01212319732 -151.3699951
rhand  -1.771034257e-031 4.505040169 -7.966340065
rfingers  -90 -7.125020027 -90
rthumb  -85.2685288 -8.163959088 -59.76434818
rfemur  -14.03653908 11.68546009 14.12544155
rtibia  -2.712002039 1.663964272 23.58782578
rfoot  -2.349909782 -15.68297482 -43.70629883
rtoes  3.838980138 19.6429218 -101.288929
lfemur  -11.56589127 -22.06206512 -19.13744164
ltibia  3.551529646 1.859210491 14.61655426
lfoot  0.9780336022 -28.74435043 30.94048882
ltoes  -8.627735139 -18.11248621 -116.01532
209
root  34.92152597 36.48595134 -14.74814227 11.28543568 9.271650314 4.555458069
lowerback  -7.988900661 3.675169945 4.130950451
upperback  -4.074973106 4.312280178 -4.525479794
thorax  0.8974530101 1.929960012 -6.657800198
lowerneck  -17.58399963 4.857110023 7.439330101
upperneck  16.25009918 3.828919649 3.049429893
head  8.050510406 2.510550022 0.2657661438
lclavicle  0 -4.497500157e-015 -2.743230041e-014
lhumerus  -42.1330986 23.68490028 70.37139893
lradius  -0.1247156188 -6.507048965e-006 25.72940063
lwrist  4.824992743e-007 -3.790274832e-007 -31.43510056
lhand  -0 -37.41360092 -10.57089996
lfingers  90 7.125020027 -90
lthumb  95.03366435 -25.39014269 101.6083227
rclavicle  0 -4.497500157e-015 -2.743230041e-014
rhumerus  68.86009979 11.39150047 -60.68640137
rradius  -5.16745672e-007 2.214343908e-008 37.20190048
rwrist  -3.062178075e-005 0.01206348371 -151.5169983
rhand  -1.770990629e-031 4.487090111 -7.898560047
rfingers  -90 -7.125020027 -90
rthumb  -85.23808625 -8.221285282 -59.77697661
rfemur  -14.05444717 11.68677044 14.14674664
rtibia  -2.702743769 1.710892439 23.61728859
rfoot  -2.368868589 -15.64570904 -43.73674011
rtoes  3.845390409 19.6417156 -101.3079988
lfemur  -11.565382 -22.03069878 -19.1133728
ltibia  3.560835123 1.89836657 14.57614517
lfoot  0.9562992454 -28.790802 30.88084984
ltoes  -8.676498845 -18.08978562 -116.1722702
210
root  34.92213572 36.48812001 -14.7509297 11.28897381 9.300658226 4.538853168
lowerback  -7.988600254 3.711380005 4.196280479
upperback  -4.075054646 4.356850147 -4.57723999
thorax  0.921522975 1.95223999 -6.745220184
lowerneck  -17.61919975 4.851290226 7.510620117
upperneck  16.27840042 3.807679653 2.997620106
head  8.068519592 2.500699997 0.2359329015
lclavicle  0 -4.497500157e-015 -2.743230041e-014
lhumerus  -42.13420105 23.64480019 70.31800079
lradius  -0.1261188537 -6.507048965e-006 25.72610283
lwrist  4.824992743e-007 -3.790274832e-007 -31.47159958
lhand  -4.443487325e-031 -37.37549973 -10.68400002
lfingers  90 7.125020027 -90
lthumb  95.0409921 -25.50240271 101.57837
rclavicle  0 -4.497500157e-015 -2.743230041e-014
rhumerus  68.75080109 11.29889965 -60.80059814
rradius  -5.16745672e-007 2.214343908e-008 37.17549896
rwrist  -3.062178075e-005 0.01200376544 -151.5249939
rhand  -1.770923262e-031 4.459229946 -7.887710094
rfingers  -90 -7.125020027 -90
rthumb  -85.23881686 -8.228764604 -59.80331655
rfemur  -14.08274651 11.63488197 14.16120052
rtibia  -2.695754528 1.728574276 23.65295982
rfoot  -2.392972469 -15.66593552 -43.72642899
rtoes  3.827904111 19.64500098 -101.2559817
lfemur  -11.57284355 -22.04647255 -19.08429146
ltibia  3.559374571 1.91189456 14.56142235
lfoot  0.9479690194 -28.79455566 30.88937378
ltoes  -8.700934684 -18.0783498 -116.2509908
211
root  34.92255624 36.49104862 -14.7519029 11.26302814 9.358392715 4.525177002
lowerback  -8.000909805 3.741430044 4.16738987
upperback  -4.075936317 4.397230148 -4.601749897
thorax  0.9269769788 1.971889973 -6.749919891
lowerneck  -17.64620018 4.829500198 7.569709778
upperneck  16.30349922 3.765710354 2.959120035
head  8.083109856 2.481290102 0.2095759213
lclavicle  0 -4.497500157e-015 -2.743230041e-014
lhumerus  -42.13600159 23.63229942 70.2798996
lradius  -0.1275247931 -6.507048965e-006 25.69490051
lwrist  4.824992743e-007 -3.790274832e-007 -31.52519989
lhand  -4.443185217e-031 -37.37039948 -10.66049957
lfingers  90 7.125020027 -90
lthumb  95.03337464 -25.47951702 101.5706858
rclavicle  0 -4.497500157e-015 -2.743230041e-014
rhumerus  68.62149811 11.19719982 -60.9516983
rradius  -5.16745672e-007 2.214343908e-008 37.17850113
rwrist  -3.062178075e-005 0.01194404531 -151.5650024
rhand  -3.541852744e-031 4.460519791 -7.899250031
rfingers  -90 -7.125020027 -90
rthumb  -85.24437172 -8.218890835 -59.80282813
rfemur  -14.04326725 11.67657661 14.18351555
rtibia  -2.678371668 1.781820297 23.65429688
rfoot  -2.412386656 -15.61810303 -43.81245041
rtoes  3.84332491 19.64210449 -101.301854
lfemur  -11.54770565 -22.07120514 -19.07386398
ltibia  3.556437016 1.908065081 14.5500555
lfoot  0.9118446708 -28.77683067 30.83090782
ltoes  -8.711290537 -18.07349113 -116.284367
